<svg width="168" height="180" fill="none" xmlns="http://www.w3.org/2000/svg"><path d="M62.314 0C49.136 16.61 45.186 24.794 49.94 35.367 54.25 44.951 65.382 49.836 59.783 72c9.197-10.799 16.503-24.515 9.281-35.578C61.718 25.17 57.694 18.336 62.314 0zm36 0C85.136 16.61 81.186 24.794 85.94 35.367c4.31 9.584 15.443 14.469 9.844 36.633 9.197-10.799 16.503-24.515 9.281-35.578C97.718 25.17 93.694 18.336 98.314 0zm36 0c-13.178 16.61-17.128 24.794-12.375 35.367 4.309 9.584 15.443 14.469 9.844 36.633 9.197-10.799 16.503-24.515 9.281-35.578-7.346-11.252-11.37-18.086-6.75-36.422z" fill="#B54646"/><path d="M168 120c0 36-24 60-60 60H84c-36 0-57.118-18.788-59.508-48H18c-18 0-18-18-18-18v-12c0-18 18-18 18-18h150v36zM18 96c-6-.388-6.187 6.375-6.187 6.375v12C11.813 120 18 120 18 120h6l-.12-23.813L18 96z" fill="#fff"/></svg>