<svg width="289" height="289" fill="none" xmlns="http://www.w3.org/2000/svg"><path d="M144.223 216.334v-63.098m0 0a72.206 72.206 0 0 0 18.027-2.271m-18.027 2.271a72.214 72.214 0 0 1-18.028-2.271m45.069 89.874a144.907 144.907 0 0 1-54.083 0m45.069 28.641a173.108 173.108 0 0 1-36.055 0m45.069-53.146v-2.308c0-11.814 7.909-21.91 18.124-27.835a90.133 90.133 0 0 0 38.14-43.591 90.132 90.132 0 0 0-28.462-105.943A90.138 90.138 0 1 0 99.045 186.191c10.216 5.925 18.136 16.021 18.136 27.835v2.308" stroke="#EBECF0" stroke-width="2" stroke-linecap="round" stroke-linejoin="round"/><path d="m161.951 84.603 18.327 18.327-18.327 18.328m-36.654 0L106.97 102.93l18.327-18.327m26.182-10.472L135.77 131.73" stroke="#EBECF0" stroke-width="5" stroke-linecap="round" stroke-linejoin="round"/></svg>