<svg width="426" height="365" fill="none" xmlns="http://www.w3.org/2000/svg"><g clip-path="url(#a)"><path d="M10 227.851V121.099a64.202 64.202 0 0 1 18.778-45.304A64.084 64.084 0 0 1 74.041 57h162.814v174.549H13.695A3.698 3.698 0 0 1 10 227.851zM235.378 58.479H74.041a62.605 62.605 0 0 0-44.218 18.362 62.72 62.72 0 0 0-18.345 44.258v106.752a2.222 2.222 0 0 0 2.217 2.219h221.683V58.48z" fill="#EBECF0"/><path d="M235.378 58.48H74.041A62.605 62.605 0 0 0 29.823 76.84a62.72 62.72 0 0 0-18.345 44.258v106.752a2.222 2.222 0 0 0 2.217 2.219h221.683V58.48z" fill="#EBECF0"/><path d="M125.193 361.191c6.839-5.783 10.993-14.92 9.903-23.815-1.089-8.895-7.836-17.072-16.588-18.96-8.752-1.889-18.729 3.339-21.387 11.897-1.463-16.498-3.149-33.687-11.912-47.737-7.935-12.721-21.679-21.824-36.574-23.453-14.895-1.628-30.577 4.523-39.866 16.29-9.29 11.767-11.564 28.874-5.058 42.383 4.793 9.952 13.623 17.359 22.874 23.384a147.518 147.518 0 0 0 100.97 22.109" fill="#F2F2F2"/><path d="M23.498 263.986a241.655 241.655 0 0 1 33.661 33.457 242.513 242.513 0 0 1 37.914 63.415c.683 1.675-2.033 2.404-2.709.748a240.083 240.083 0 0 0-21.907-41.488 240.804 240.804 0 0 0-48.946-54.143c-1.402-1.143.596-3.122 1.987-1.989z" fill="#fff"/><path d="M129.917 361.191c-6.839-5.783-10.993-14.92-9.903-23.815 1.089-8.895 7.836-17.072 16.588-18.96 8.752-1.889 18.729 3.339 21.387 11.897 1.463-16.498 3.149-33.687 11.912-47.737 7.935-12.721 21.679-21.824 36.573-23.453 14.895-1.628 30.578 4.523 39.867 16.29 9.29 11.767 11.564 28.874 5.058 42.383-4.793 9.952-13.623 17.359-22.874 23.384a147.52 147.52 0 0 1-100.97 22.109" fill="#F2F2F2"/><path d="M231.612 263.986a241.69 241.69 0 0 0-33.662 33.457 242.535 242.535 0 0 0-37.914 63.415c-.682 1.675 2.034 2.404 2.709.748a241.092 241.092 0 0 1 70.853-95.631c1.403-1.143-.595-3.122-1.986-1.989z" fill="#fff"/><path d="M150.21 164.195c12.651 0 22.907-10.266 22.907-22.929 0-12.662-10.256-22.928-22.907-22.928s-22.907 10.266-22.907 22.928c0 12.663 10.256 22.929 22.907 22.929z" fill="#F2F2F2"/><path d="M79.58 62.23h157.825v8.642H99.728A61.593 61.593 0 0 0 76.14 75.57a61.64 61.64 0 0 0-19.998 13.374 61.698 61.698 0 0 0-13.362 20.016 61.743 61.743 0 0 0-4.692 23.611v98.19h-17.27a2.878 2.878 0 0 1-2.878-2.881V123.927a61.75 61.75 0 0 1 4.692-23.611A61.706 61.706 0 0 1 35.994 80.3a61.64 61.64 0 0 1 19.998-13.374 61.593 61.593 0 0 1 23.589-4.697z" fill="#F2F2F2"/><path d="M109.938 361.672V230.39h38.425v131.282a3.33 3.33 0 0 1-3.326 3.328h-31.774a3.327 3.327 0 0 1-3.325-3.328z" fill="#3F3D56"/><path d="M9.81 227.801V121.049A64.201 64.201 0 0 1 28.59 75.746 64.084 64.084 0 0 1 73.852 56.95h162.814V231.5H13.506a3.697 3.697 0 0 1-3.695-3.698zM235.189 58.429H73.851a62.605 62.605 0 0 0-44.217 18.362 62.719 62.719 0 0 0-18.345 44.258v106.752a2.223 2.223 0 0 0 2.216 2.219h221.683V58.43z" fill="#3F3D56"/><path d="M150.21 153.1a13.315 13.315 0 0 1-9.401-3.903 13.338 13.338 0 0 1-3.9-9.41v-95.41a2.222 2.222 0 0 0-2.217-2.219H82.966a3.698 3.698 0 0 1-3.694-3.698V3.698A3.704 3.704 0 0 1 82.966 0h76.85a3.699 3.699 0 0 1 3.695 3.698v136.089a13.338 13.338 0 0 1-3.9 9.41 13.315 13.315 0 0 1-9.401 3.903z" fill="#60D9F9"/><path d="M242.578 55.471a42.012 42.012 0 0 1 29.746 12.26 42.087 42.087 0 0 1 12.373 29.722v121.526h82.762a12.53 12.53 0 0 1 8.872 3.656 12.552 12.552 0 0 1 3.69 8.864H200.458V97.453a42.087 42.087 0 0 1 12.373-29.722 42.013 42.013 0 0 1 29.747-12.26z" fill="#3F3D56"/><path d="m232.471 124.675 8.721 36.061L411.8 119.398l-8.721-36.061a2.689 2.689 0 0 0-1.743-1.92 2.65 2.65 0 0 0-.985-.148L301.732 30.16a2.718 2.718 0 0 0-3.441.828l-47.529 66.339-17.917 25.016a.37.37 0 0 0-.066.309 2.69 2.69 0 0 0-.308 2.023z" fill="#fff"/><path d="M232.779 122.652a.367.367 0 0 0 .15.234.422.422 0 0 0 .32.063.401.401 0 0 0 .221-.153l.061-.086.933-1.306 16.943-23.64 47.515-66.324a1.935 1.935 0 0 1 2.455-.59l97.855 50.714.878.456a.943.943 0 0 0 .109.038c.066-.012.133-.019.2-.02a.376.376 0 0 0 .258-.325.404.404 0 0 0-.088-.284.38.38 0 0 0-.117-.096l-.122-.064-98.618-51.109a2.718 2.718 0 0 0-3.441.828l-47.529 66.339-17.918 25.016a.383.383 0 0 0-.065.309z" fill="#3F3D56"/><path d="m284.018 126.329 3.798.422 28.185 3.125 18.684 2.07 1.104.123 23.315-18.227.894-.699 5.506-4.304 19.592-15.315.118-1.076 6.969-62.951a3.298 3.298 0 0 0-2.904-3.633l-93-10.312a3.29 3.29 0 0 0-3.629 2.907l-4.915 44.404-2.726 24.619-2.438 22.024-1.131 10.229-.329 2.962a3.296 3.296 0 0 0 2.907 3.632z" fill="#E6E6E6"/><path d="m309.574 71.15 40.285 4.465 14.286 1.584a4.831 4.831 0 0 0 5.335-4.275 4.836 4.836 0 0 0-4.271-5.34l-17.769-1.97-36.799-4.084a4.833 4.833 0 0 0-5.336 4.276 4.835 4.835 0 0 0 4.269 5.344zM307.28 88.986c.104.019.208.037.314.047l46.764 5.186 7.808.867a4.832 4.832 0 0 0 5.337-4.277 4.84 4.84 0 0 0-4.274-5.341l-11.29-1.25-37.043-4.109-6.234-.691a4.837 4.837 0 0 0-1.382 9.569zM301.988 104.802a4.833 4.833 0 0 0 3.606 2.311l19.167 2.125 34.137 3.785.008-.001 1.092.121 5.506-4.304a4.76 4.76 0 0 0 .001-.984 4.847 4.847 0 0 0-4.276-4.307l-4.742-.528-18.811-2.083-13.535-1.503-17.484-1.94a4.827 4.827 0 0 0-4.603 2.202 4.847 4.847 0 0 0-.066 5.106zM328.91 49.347l10.023 1.111 4.427.492 6.688.74a4.831 4.831 0 0 0 5.336-4.276 4.835 4.835 0 0 0-4.273-5.341l-21.134-2.342a4.83 4.83 0 0 0-5.337 4.274 4.834 4.834 0 0 0 4.27 5.342z" fill="#fff"/><path d="m246.95 76.13 12.22 50.526 20.396 3.882 18.866 3.595 20.243 3.855 6.468 1.232a2.716 2.716 0 0 0 2.172-.526l5.189-4.057 3.285-2.568 23.315-18.227-14.824-61.295a3.26 3.26 0 0 0-.92-1.597 3.291 3.291 0 0 0-3.048-.826l-90.941 22.035a3.29 3.29 0 0 0-2.421 3.971z" fill="#60D9F9"/><path d="M274.971 116.325a4.84 4.84 0 0 0 5.834 3.564l53.363-12.93a4.846 4.846 0 0 0 3.56-5.84 1.582 1.582 0 0 0-.052-.182 4.83 4.83 0 0 0-5.783-3.382l-53.362 12.93a4.84 4.84 0 0 0-3.56 5.84zM279.566 130.537l18.866 3.596 39.966-9.684a4.838 4.838 0 0 0-2.275-9.403l-53.362 12.929a4.798 4.798 0 0 0-2.769 1.858 4.847 4.847 0 0 0-.426.704zM318.675 137.988l6.468 1.232a2.718 2.718 0 0 0 2.172-.527l5.189-4.056-13.829 3.351zM285.723 89.232a4.834 4.834 0 0 0 5.835 3.563l20.668-5.007a4.848 4.848 0 0 0 3.56-5.84 4.837 4.837 0 0 0-5.834-3.563l-20.669 5.007a4.842 4.842 0 0 0-3.56 5.84z" fill="#fff"/><path d="m298.431 134.132 20.245 3.856 6.467 1.233a2.727 2.727 0 0 0 2.171-.526l5.192-4.058-1.822.442-3.847 3.004a1.952 1.952 0 0 1-1.551.375l-4.787-.911-20.246-3.856-1.822.441zm60.473-21.108.197.815.898-.698-1.095-.117zm-60.473 21.108 20.245 3.856 6.467 1.233a2.727 2.727 0 0 0 2.171-.526l5.192-4.058-1.822.442-3.847 3.004a1.952 1.952 0 0 1-1.551.375l-4.787-.911-20.246-3.856-1.822.441zm0 0 20.245 3.856 6.467 1.233a2.727 2.727 0 0 0 2.171-.526l5.192-4.058-1.822.442-3.847 3.004a1.952 1.952 0 0 1-1.551.375l-4.787-.911-20.246-3.856-1.822.441zm-65.96-9.457 22.845 94.456a2.71 2.71 0 0 0 3.267 1.996l165.347-40.063a2.714 2.714 0 0 0 1.994-3.271l-22.845-94.456a2.69 2.69 0 0 0-1.743-1.92 2.65 2.65 0 0 0-.985-.148 2.551 2.551 0 0 0-1.119.294c-.16.076-.31.17-.449.28l-13.57 10.605-19.708 15.409-6.602 5.162.001.005-.005.002-24.212 18.918-4.003 3.135-3.847 3.004a1.952 1.952 0 0 1-1.551.375l-4.787-.911-20.246-3.856-20.263-3.858-44.382-8.453a2.655 2.655 0 0 0-1.143.024 2.716 2.716 0 0 0-1.994 3.271zm65.96 9.457 20.245 3.856 6.467 1.233a2.727 2.727 0 0 0 2.171-.526l5.192-4.058-1.822.442-3.847 3.004a1.952 1.952 0 0 1-1.551.375l-4.787-.911-20.246-3.856-1.822.441zm0 0 20.245 3.856 6.467 1.233a2.727 2.727 0 0 0 2.171-.526l5.192-4.058-1.822.442-3.847 3.004a1.952 1.952 0 0 1-1.551.375l-4.787-.911-20.246-3.856-1.822.441zm0 0 20.245 3.856 6.467 1.233a2.727 2.727 0 0 0 2.171-.526l5.192-4.058-1.822.442-3.847 3.004a1.952 1.952 0 0 1-1.551.375l-4.787-.911-20.246-3.856-1.822.441z" fill="#fff"/><path d="m298.431 134.132 20.245 3.856 6.467 1.233a2.727 2.727 0 0 0 2.171-.526l5.192-4.058-1.822.442-3.847 3.004a1.952 1.952 0 0 1-1.551.375l-4.787-.911-20.246-3.856-1.822.441zm60.473-21.108.197.815.898-.698-1.095-.117zm-60.473 21.108 20.245 3.856 6.467 1.233a2.727 2.727 0 0 0 2.171-.526l5.192-4.058-1.822.442-3.847 3.004a1.952 1.952 0 0 1-1.551.375l-4.787-.911-20.246-3.856-1.822.441zm0 0 20.245 3.856 6.467 1.233a2.727 2.727 0 0 0 2.171-.526l5.192-4.058-1.822.442-3.847 3.004a1.952 1.952 0 0 1-1.551.375l-4.787-.911-20.246-3.856-1.822.441zm-64.899-11.422.1.076c.017-.028.046-.053.068-.081a1.944 1.944 0 0 1 1.763-.568l44.104 8.397 18.864 3.598 20.245 3.856 6.467 1.233a2.727 2.727 0 0 0 2.171-.526l5.192-4.058-1.822.442-3.847 3.004a1.952 1.952 0 0 1-1.551.375l-4.787-.911-20.246-3.856-20.263-3.858-44.382-8.453a2.655 2.655 0 0 0-1.143.024l-.933 1.306zm-1.061 1.965 22.845 94.456a2.71 2.71 0 0 0 3.267 1.996l165.347-40.063a2.714 2.714 0 0 0 1.994-3.271l-22.845-94.456a2.69 2.69 0 0 0-1.743-1.92 2.65 2.65 0 0 0-.985-.148 2.551 2.551 0 0 0-1.119.294c-.16.076-.31.17-.449.28l-13.57 10.605-19.708 15.409-6.602 5.162.001.005-.005.002-24.212 18.918-4.003 3.135-3.847 3.004a1.952 1.952 0 0 1-1.551.375l-4.787-.911-20.246-3.856-20.263-3.858-44.382-8.453a2.655 2.655 0 0 0-1.143.024 2.716 2.716 0 0 0-1.994 3.271zm.753-.183a1.926 1.926 0 0 1 .341-1.62.257.257 0 0 1 .067-.086c.017-.028.046-.053.068-.081a1.944 1.944 0 0 1 1.763-.568l44.104 8.397 18.864 3.598 20.245 3.856 6.467 1.233a2.727 2.727 0 0 0 2.171-.526l5.192-4.058 3.284-2.567 23.311-18.231.898-.698 5.503-4.303 19.595-15.317 14.167-11.073a1.92 1.92 0 0 1 .729-.353c.074-.018.15-.03.226-.037.066-.012.133-.019.2-.02a1.945 1.945 0 0 1 1.912 1.48l22.845 94.456a1.946 1.946 0 0 1-.229 1.467 1.917 1.917 0 0 1-1.198.874l-165.347 40.064a1.934 1.934 0 0 1-2.333-1.43l-22.845-94.457zm65.207 9.64 20.245 3.856 6.467 1.233a2.727 2.727 0 0 0 2.171-.526l5.192-4.058-1.822.442-3.847 3.004a1.952 1.952 0 0 1-1.551.375l-4.787-.911-20.246-3.856-1.822.441zm0 0 20.245 3.856 6.467 1.233a2.727 2.727 0 0 0 2.171-.526l5.192-4.058-1.822.442-3.847 3.004a1.952 1.952 0 0 1-1.551.375l-4.787-.911-20.246-3.856-1.822.441zm0 0 20.245 3.856 6.467 1.233a2.727 2.727 0 0 0 2.171-.526l5.192-4.058-1.822.442-3.847 3.004a1.952 1.952 0 0 1-1.551.375l-4.787-.911-20.246-3.856-1.822.441z" fill="#3F3D56"/><path d="M380.835 162.506a6.016 6.016 0 0 1 4.42-7.249l20.869-5.056a5.992 5.992 0 0 1 4.525.72 6.007 6.007 0 0 1-1.702 10.952l-20.869 5.057a6.011 6.011 0 0 1-7.243-4.424z" fill="#60D9F9"/><path d="M150.21 144.964a5.174 5.174 0 0 0 5.173-5.177 5.175 5.175 0 0 0-5.173-5.177 5.175 5.175 0 0 0-5.173 5.177 5.174 5.174 0 0 0 5.173 5.177z" fill="#fff"/></g><defs><clipPath id="a"><path fill="#fff" d="M0 0h426v365H0z"/></clipPath></defs></svg>