<svg width="289" height="289" fill="none" xmlns="http://www.w3.org/2000/svg"><path d="M144.223 216.334v-63.097m0 0a72.254 72.254 0 0 0 18.027-2.272m-18.027 2.272a72.262 72.262 0 0 1-18.028-2.272m45.069 89.875a144.95 144.95 0 0 1-54.083 0m45.069 28.64a173.108 173.108 0 0 1-36.055 0m45.069-53.146v-2.308c0-11.814 7.909-21.909 18.124-27.835a90.135 90.135 0 0 0 9.678-149.533A90.137 90.137 0 0 0 57.164 84.8a90.14 90.14 0 0 0 41.88 101.39c10.217 5.926 18.137 16.021 18.137 27.835v2.308" stroke="#000" stroke-width="2" stroke-linecap="round" stroke-linejoin="round"/><path d="m161.951 84.604 18.327 18.327-18.327 18.327m-36.654 0-18.327-18.327 18.327-18.327m26.182-10.473L135.77 131.73" stroke="#000" stroke-width="5" stroke-linecap="round" stroke-linejoin="round"/></svg>